<svg id="General" xmlns="http://www.w3.org/2000/svg" viewBox="0 0 347.22 211.44"><defs><style>.cls-1{fill:#050505;}</style></defs><title>LinajesRevisados2</title><g id="Circular"><g id="Titulo"><g id="LINAJES"><path d="M159.86,416.63l-3.23,7.29a23.06,23.06,0,0,1-3.84.37,55.46,55.46,0,0,1-8.94-1c-2.71-.51-5.4-1.12-8.08-1.85s-6.15-1.76-10.41-3.12q-5.19-1.65-10.3-3.08a33,33,0,0,1-11,6.88,34.75,34.75,0,0,1-12.63,2.44q-7.36,0-11.84-2.67c-3-1.77-4.47-4.12-4.47-7q0-4.66,5-7.29T93.79,405a78.66,78.66,0,0,1,21.87,3.53,42.83,42.83,0,0,0,3.65-8.19q1.38-4.29,3-11.88l5.33-25.1q2.33-10.9,4.32-17a52.38,52.38,0,0,1,4.63-10.52,36.84,36.84,0,0,1,5.71-7.45,26.08,26.08,0,0,1,6.69-5,15.06,15.06,0,0,1,6.76-1.72,11.67,11.67,0,0,1,6.32,1.69,10.46,10.46,0,0,1,4.09,4.88,18.38,18.38,0,0,1,1.39,7.41,42.63,42.63,0,0,1-1.42,9.69,60.81,60.81,0,0,1-3.69,10.82l-7,1.06a70.06,70.06,0,0,0,5.26-12.67A40,40,0,0,0,162.79,333a10.94,10.94,0,0,0-1.88-6.84,6.54,6.54,0,0,0-5.49-2.4q-7.74,0-12.93,10.22a44.19,44.19,0,0,0-2.7,6.73q-1,3.42-2.78,11.31l-6.69,31.34a108.69,108.69,0,0,1-4.51,16,40.06,40.06,0,0,1-5.94,10.45l1.88.6q11.35,3.77,18.23,5.38a52.89,52.89,0,0,0,11.91,1.61A44.07,44.07,0,0,0,159.86,416.63Zm-48.33-2.48-1.81-.53q-13.45-4.06-20.59-4.06-11.35,0-11.35,5.94,0,3,3.91,5.07a20.88,20.88,0,0,0,9.84,2.07,27.5,27.5,0,0,0,11-2.26A26.83,26.83,0,0,0,111.53,414.15Z" transform="translate(-75.15 -321.7)"/><path d="M179.55,378.44l-6.61,24.73a39.14,39.14,0,0,0-1.66,9.77,8.07,8.07,0,0,0,.83,3.91,2.46,2.46,0,0,0,2.18,1.5q2.33,0,7.44-5.56l1.2,1-.75.83a71.62,71.62,0,0,1-6.31,6.8,6,6,0,0,1-3.76,1.77,4.71,4.71,0,0,1-4-2.37,10.2,10.2,0,0,1-1.61-5.9,44.43,44.43,0,0,1,.9-7.14l4.73-26.31ZM181.73,349a4.41,4.41,0,0,1,3.08,7.52,4.2,4.2,0,0,1-3.08,1.27,4.62,4.62,0,0,1-4.43-4.43,4.2,4.2,0,0,1,1.27-3.08A4.31,4.31,0,0,1,181.73,349Z" transform="translate(-75.15 -321.7)"/><path d="M187.44,423.17l8-41.65,7.14-3.08L196.09,406q6.22-13.15,12.4-20t11.8-6.84A5.92,5.92,0,0,1,224.8,381a6.92,6.92,0,0,1,1.73,4.92,20.89,20.89,0,0,1-.83,4.88L225,394l-2.26,9.17-.75,2.93a31.21,31.21,0,0,0-1.13,6.92,7.88,7.88,0,0,0,.83,3.87,2.45,2.45,0,0,0,2.18,1.46q2.33,0,7.44-5.56l1.2,1-.75.83a70.3,70.3,0,0,1-6.31,6.8,6,6,0,0,1-3.76,1.77,4.68,4.68,0,0,1-3.94-2.37,10.2,10.2,0,0,1-1.62-5.9,42,42,0,0,1,.9-7.14l2.93-15.93a39.35,39.35,0,0,0,.6-5.26,3.26,3.26,0,0,0-.82-2.41,3.08,3.08,0,0,0-2.26-.83q-5.19,0-12.78,11.13a71.1,71.1,0,0,0-6.08,10.56,137.65,137.65,0,0,0-5.42,14.47l-.67,2Z" transform="translate(-75.15 -321.7)"/><path d="M279,378l-7.06,27.51a30.76,30.76,0,0,0-1.13,7.07,7.49,7.49,0,0,0,1,3.91,2.81,2.81,0,0,0,2.4,1.65q2.18,0,7.22-5.34l1.05,1-.83,1a69.89,69.89,0,0,1-6.12,6.43,6.17,6.17,0,0,1-3.72,1.84,5.07,5.07,0,0,1-4.18-2.52,9.93,9.93,0,0,1-1.76-5.82q0-2.42,1.8-10.9l.6-2.86a55.29,55.29,0,0,1-7.44,12.4q-7.81,9.93-15,9.93a8.2,8.2,0,0,1-6.76-3.09A12.81,12.81,0,0,1,236.6,412a32.17,32.17,0,0,1,4-14.81,40.84,40.84,0,0,1,10-12.74q6-5,11.61-5,5.94,0,8.87,4.36l.83-2.86Zm-9.88,8.42a8.74,8.74,0,0,0-3.44-4.18,8,8,0,0,0-5.05-1.15c-2.2.2-4.43,1.43-6.68,3.67a30.2,30.2,0,0,0-6,9.05,49.11,49.11,0,0,0-3.13,9.8,29.75,29.75,0,0,0-.82,8.68,10.75,10.75,0,0,0,2,5.85,4.75,4.75,0,0,0,4.36,1.79q3.43-.32,6.89-3.89a38.84,38.84,0,0,0,6.55-9.89,33.89,33.89,0,0,0,2.88-7.21q1-3.56,2-9.84Z" transform="translate(-75.15 -321.7)"/><path d="M301.61,378.44l-11.87,50.44c-1.24,3.92-2.08,7.13-2.63,9.36-.4,1.61-.83,3.21-1.19,4.83-1.18,5.31-1.06,6.76-2.34,7.55a4.32,4.32,0,0,1-5-.91c-.88-1-1.06-2.43-.25-6.56a61,61,0,0,1,3.08-10.52l12.92-51.11Z" transform="translate(-75.15 -321.7)"/><path d="M337.92,410.76l1.35,1.13a35.55,35.55,0,0,1-9.09,8.91,17.83,17.83,0,0,1-9.55,2.74,12.53,12.53,0,0,1-9.77-4.06q-3.67-4.05-3.68-10.75A29.82,29.82,0,0,1,310.75,395a36.88,36.88,0,0,1,8.94-11.5q5.37-4.54,10.64-4.55a7.28,7.28,0,0,1,5.07,1.8,6,6,0,0,1,2,4.66q0,5.79-6.31,11.58t-17.21,9.84a11.19,11.19,0,0,0-.08,1.36,12.34,12.34,0,0,0,2.86,8.45,9.32,9.32,0,0,0,7.36,3.27,12.15,12.15,0,0,0,6.84-2.21A33.07,33.07,0,0,0,337.92,410.76Zm-24.05-5.71q8.11-3.6,12.47-8a27.07,27.07,0,0,0,4.74-6.47,13.73,13.73,0,0,0,1.8-6.23q0-3.54-3.23-3.54-4.89,0-9.88,7.71A36.81,36.81,0,0,0,313.87,405.05Z" transform="translate(-75.15 -321.7)"/><path d="M340.32,417.6l4.21-5q3.32,7.82,10.53,7.82a9.17,9.17,0,0,0,6.42-2.44,7.49,7.49,0,0,0,2.67-5.68,6.32,6.32,0,0,0-1.28-4,44,44,0,0,0-6.09-5.56,37.44,37.44,0,0,1-6-5.68,7.76,7.76,0,0,1-1.54-4.77,11.28,11.28,0,0,1,2.07-6.54,15.84,15.84,0,0,1,12.81-6.69,9.29,9.29,0,0,1,5.68,1.69,5.18,5.18,0,0,1,2.29,4.32,4.72,4.72,0,0,1-2.93,4.74,8.63,8.63,0,0,0-2.67-5.53,8.21,8.21,0,0,0-5.68-2,8,8,0,0,0-5.37,2,5.92,5.92,0,0,0-2.29,4.55q0,3.17,3.91,6.24l4.35,3.53q6.39,5,6.39,10.3a13.28,13.28,0,0,1-2.21,7.33,16.11,16.11,0,0,1-6,5.45,16.77,16.77,0,0,1-8,2Q344.91,423.77,340.32,417.6Z" transform="translate(-75.15 -321.7)"/></g><g id="TERRA"><path d="M209.39,532.61l2.78-6.76a39.25,39.25,0,0,0,15.49,3,29.81,29.81,0,0,0,17.47-5.3q7.63-5.29,13.65-16.19a83.6,83.6,0,0,0,3.83-8.23q1.88-4.63,4.66-13,2.33-6.92,4.55-14.92t3.75-14.62q1.55-6.62,3-14.73l8-3.61-.53-.07-1.5-.23a268.55,268.55,0,0,0-32.77-2.1,73.41,73.41,0,0,0-13.53,1.05,28,28,0,0,0-9.32,3.38q-5.26,3.31-5.27,8.49,0,10.6,26.46,12L245,466.17a39.79,39.79,0,0,1-12.55-2.63,20,20,0,0,1-8.23-5.79,12.76,12.76,0,0,1-2.9-8.19q0-9.26,11.65-14.89,9.85-4.73,28.94-4.73,5.19,0,13.27.6t16.72,1.54q8.64.94,14.36,2l1.35.23-3.38,6.76-1.35-.22q-6.61-1.2-15.41-2.48l-.53-.08-.22,1.05-.23,1.06q-5.94,27.14-12.25,44.68t-14.21,28.07a47.28,47.28,0,0,1-18.37,15.26q-10.49,4.74-24.77,4.74A54.43,54.43,0,0,1,209.39,532.61Z" transform="translate(-75.15 -321.7)"/><path d="M308,518l1.35,1.13a35.32,35.32,0,0,1-9.09,8.9,17.84,17.84,0,0,1-9.55,2.75,12.58,12.58,0,0,1-9.77-4.06q-3.68-4.07-3.68-10.75a29.89,29.89,0,0,1,3.57-13.72,37.11,37.11,0,0,1,8.94-11.5q5.37-4.54,10.64-4.54a7.28,7.28,0,0,1,5.07,1.8,6,6,0,0,1,2,4.66q0,5.79-6.31,11.58t-17.21,9.84a10.9,10.9,0,0,0-.08,1.35,12.37,12.37,0,0,0,2.86,8.46,9.32,9.32,0,0,0,7.36,3.27A12.09,12.09,0,0,0,300.9,525,32.75,32.75,0,0,0,308,518Zm-24.05-5.71q8.11-3.62,12.47-8a27.27,27.27,0,0,0,4.74-6.47,13.73,13.73,0,0,0,1.8-6.24c0-2.35-1.07-3.53-3.23-3.53q-4.89,0-9.88,7.7A36.89,36.89,0,0,0,283.92,512.32Z" transform="translate(-75.15 -321.7)"/><path d="M313.87,508.33q6.47-7.81,8.64-14.58-6.09-3.37-6.09-9.69a7.87,7.87,0,0,1,1.43-4.89,4.36,4.36,0,0,1,3.61-1.88,4.31,4.31,0,0,1,3.68,2.07,9.28,9.28,0,0,1,1.43,5.37,18.84,18.84,0,0,1-.83,5.19,14.91,14.91,0,0,0,3.69.53,11,11,0,0,0,7.66-2.71h3.61l-.53,1.05a144.71,144.71,0,0,0-8.9,19.51q-3.5,9.59-3.5,14.31a4.6,4.6,0,0,0,.9,2.9,2.67,2.67,0,0,0,2.18,1.16q3.09,0,9.92-6.54l1.21,1.36a55.24,55.24,0,0,1-6.54,5.79q-4,3.15-7.44,3.15a5.81,5.81,0,0,1-4.63-1.95,7.91,7.91,0,0,1-1.69-5.34q0-5.64,4.36-14.28,1.59-3.23,4.06-7.37c1.66-2.75,3.73-6,6.24-9.84l.75-1a16.75,16.75,0,0,1-4.77,3.19,13.61,13.61,0,0,1-5.22.94,11.32,11.32,0,0,1-2.86-.38,46.24,46.24,0,0,1-9,15.19Zm27-19.09a20.54,20.54,0,0,0,.3-3.15,8.42,8.42,0,0,0-.86-4.14,2.55,2.55,0,0,0-2.22-1.5,1.64,1.64,0,0,0-1.31.71,2.76,2.76,0,0,0-.57,1.77C336.19,485.29,337.75,487.39,340.85,489.24Z" transform="translate(-75.15 -321.7)"/><path d="M344,508.33q6.47-7.81,8.64-14.58-6.09-3.37-6.09-9.69a7.87,7.87,0,0,1,1.43-4.89,4.36,4.36,0,0,1,3.61-1.88,4.31,4.31,0,0,1,3.68,2.07,9.28,9.28,0,0,1,1.43,5.37,18.84,18.84,0,0,1-.83,5.19,14.91,14.91,0,0,0,3.69.53,11,11,0,0,0,7.66-2.71h3.61l-.53,1.05a144.71,144.71,0,0,0-8.9,19.51q-3.5,9.59-3.5,14.31a4.6,4.6,0,0,0,.9,2.9,2.68,2.68,0,0,0,2.18,1.16c2.06,0,5.36-2.18,9.93-6.54l1.2,1.36a55.24,55.24,0,0,1-6.54,5.79q-4,3.15-7.44,3.15a5.81,5.81,0,0,1-4.63-1.95,7.91,7.91,0,0,1-1.69-5.34q0-5.64,4.36-14.28,1.59-3.23,4.06-7.37c1.66-2.75,3.73-6,6.24-9.84l.75-1a16.75,16.75,0,0,1-4.77,3.19,13.61,13.61,0,0,1-5.22.94,11.32,11.32,0,0,1-2.86-.38,46.24,46.24,0,0,1-9,15.19Zm30.14-19.09a20.54,20.54,0,0,0,.3-3.15,8.42,8.42,0,0,0-.86-4.14,2.55,2.55,0,0,0-2.22-1.5,1.67,1.67,0,0,0-1.32.71,2.82,2.82,0,0,0-.56,1.77Q369.49,486.47,374.15,489.24Z" transform="translate(-75.15 -321.7)"/><path class="cls-1" d="M418.91,485.86l-7.07,27.51a31.2,31.2,0,0,0-1.12,7.07,7.53,7.53,0,0,0,1,3.9A2.81,2.81,0,0,0,414.1,526q2.17,0,7.21-5.34l1.06,1.05-.83,1a68.33,68.33,0,0,1-6.13,6.43,6.18,6.18,0,0,1-3.72,1.84,5.07,5.07,0,0,1-4.17-2.52,9.87,9.87,0,0,1-1.76-5.83q0-2.4,1.8-10.89l.6-2.86a55.52,55.52,0,0,1-7.44,12.4q-7.82,9.93-15,9.92A8.2,8.2,0,0,1,379,528.1a12.76,12.76,0,0,1-2.48-8.27,32.13,32.13,0,0,1,4-14.8,41,41,0,0,1,10-12.74q6-5,11.62-5,5.93,0,8.87,4.36l.82-2.86Zm-8.64,9.62a8.77,8.77,0,0,0-3-4.47,8,8,0,0,0-4.92-1.62q-3.32,0-7,3.05a30.31,30.31,0,0,0-6.77,8.45,49.85,49.85,0,0,0-4,9.47,30,30,0,0,0-1.61,8.57,10.62,10.62,0,0,0,1.46,6,4.72,4.72,0,0,0,4.17,2.18c2.31,0,4.71-1.07,7.22-3.23a39.08,39.08,0,0,0,7.44-9.24,34.82,34.82,0,0,0,3.53-6.92q1.27-3.45,2.86-9.62Z" transform="translate(-75.15 -321.7)"/></g><path d="M310,356.78c-.2.67-1.05,3.61-3.47,4.5-2.86,1.05-6.93-1.11-7.4-3.53-.42-2.15,1.89-5.42,5.06-9.91.28-.39,1-1.41.67-2.22a1.45,1.45,0,0,0-1.13-.82c-1.12-.1-2,1.63-3.81,4.76-2.92,5-3.53,5.26-3.75,7.08-.1.83-.37,4,1.44,5.2.79.51,2.2.77,2.84.14a1.62,1.62,0,0,0,.43-1c.11-.84-.42-1.31-.27-1.5.29-.38,2.37,1.65,4.21,1.55,3.36-.18,5.2-7.52,5.41-7.44s0,9.31-6.25,11.83c-3.77,1.52-8.83.22-10.71-2.67a9,9,0,0,1-1.38-5.35c0-.19,0-.34.05-.44.25-2,1.19-3.33,3-5.92,1.06-1.48,1.13-1.32,3.83-4.58,3.51-4.25,4-5.2,3.91-6.35a11.23,11.23,0,0,1-.23-3.19c.14-.94.39-1.31.68-1.51a1.82,1.82,0,0,1,1.83-.06c.56.29.74.76,1.39,2.16,1.12,2.45,1.34,2.69,1.47,2.67.36-.06-.3-2.5.78-3.25a2,2,0,0,1,2.43.48,2.45,2.45,0,0,1,.12,2.14,23.92,23.92,0,0,1-2.15,5.23C307.17,348.89,311.51,351.56,310,356.78Zm-6-6.57a21.61,21.61,0,0,0-2.94,4.39c-.65,1.44-1,2.24-.74,3.26a3.44,3.44,0,0,0,2.25,2.4c2.38.74,4.5-2.06,4.68-2.3a7.35,7.35,0,0,0,1.26-4.07,11.48,11.48,0,0,0-.42-3.68c-.4-1.79-.61-2.72-1.18-2.86C306.61,347.26,306.18,347.47,304,350.21Zm4.91,7.6" transform="translate(-75.15 -321.7)"/></g></g></svg>