<?xml version="1.0" encoding="utf-8"?>
<!-- Generator: Adobe Illustrator 23.0.6, SVG Export Plug-In . SVG Version: 6.00 Build 0)  -->
<svg version="1.1" xmlns="http://www.w3.org/2000/svg" xmlns:xlink="http://www.w3.org/1999/xlink" x="0px" y="0px"
	 viewBox="0 0 612 792" style="enable-background:new 0 0 612 792;" xml:space="preserve">
<style type="text/css">
	.st0{display:none;}
	.st1{display:inline;fill:#FF0808;}
	.st2{display:inline;}
</style>
<g id="Layer_2" class="st0">
	<rect x="-27.29" y="25.69" class="st1" width="769.79" height="661.28"/>
</g>
<g id="Aromaterapia" class="st0">
	<path class="st2" d="M308.86,7.49c19.07-1.58,37.26,0.54,55.4,3.36c8.27,1.29,13.75,8.43,12.86,19.11
		c-0.79,9.41-0.99,19.09-4.45,28.09c-1.89,4.93-1.1,9.47,0.03,14.36c1.57,6.77,2.17,13.62-6.53,16.58
		c-3.49,1.19-2.37,2.89-0.85,5.21c5.56,8.5,14.59,11.4,23.37,14.08c17.19,5.23,25.13,18.22,29.19,34.07
		c4.12,16.07,3.88,32.76,4.6,49.24c2.58,59.32,3.19,118.67,3.33,178.03c0.08,35.04,1.66,70.08,1.39,105.11
		c-0.34,45.16,1.34,90.35-1.26,135.49c-0.61,10.58,1.72,21.02,1.45,31.65c-0.83,32.5-1.13,65.01-1.55,97.51
		c-0.11,8.68-2.59,16.76-5.45,24.82c-4.96,13.97-16.65,18.38-29.6,20.18c-14.08,1.96-28.28,1.69-42.49,0.51
		c-19.85-1.65-39.73-0.25-59.6-0.27c-19.78-0.02-39.55,1.96-59.35-0.22c-18.07-1.98-33.75-17.37-35.23-36.5
		c-1.44-18.51-2.61-37.09-2.64-55.64c-0.04-19.59,1.5-39.18,2.16-58.77c0.36-10.57,0.74-21.15-0.38-31.72
		c-1.38-13.16,0.49-26.3,0.55-39.43c0.3-64.81,0.26-129.61,0.02-194.42c-0.11-28.36-0.81-56.71-1.57-85.06
		c-0.51-18.81-2.83-37.66-2.12-56.41c0.82-21.43-2.7-42.97-0.01-64.03c2.12-16.54,3.96-34.54,18.75-46.9
		c8.01-6.7,17.72-9.33,26.84-13.42c2.58-1.16,5.35-1.93,7.9-3.16c2.38-1.14,4.67-2.89,4.75-5.68c0.09-3.28-3.19-2.66-5.17-3.5
		c-7.07-2.98-10.99-12.23-7.93-20.27c1.38-3.62,1.03-6.74,0.69-10.39c-1.02-10.93-1.21-21.93-2.05-32.9
		c-0.75-9.74,3.3-13.28,13.15-14.82C267.74,8.16,288.56,6.55,308.86,7.49z M352.79,99.75c-3.45-1.1-3.74-4.25-4.4-6.78
		c-1.53-5.91-3.38-8.05-6.64-1.13c-3.07-0.99-1.91-5.65-5.38-5.25c-3.15,0.37-0.92,4.97-3.73,5.75c-2.79-0.89-1.01-5.52-4.44-5.36
		c-2.94,1.03-0.61,5.5-4.55,5.74c-1.69-2.05-0.54-6.29-4.25-6.67c-5-0.5-0.88,5.56-4.14,6.5c-2.83-1.19-1.65-6.54-5.39-5.72
		c-3.43,0.75-0.55,5.35-2.94,7.28c-3.73-0.66-1.32-7.33-6.13-6.54c-3.27,0.53-0.93,4.79-3.3,6.37c-2.77-1.44-1.26-6.55-5.47-6.6
		c-3.77-0.04-1.04,4.81-4.39,5.71c-3.43-9.77-5.68-5.01-7.11,0.96c-3.32-1.32-1.75-5.3-4.67-6.21c-2.32,1.71,1.02,5.33-2.38,6.58
		c-3.2-1.16-0.96-7.2-5.22-6.51c-3.24,0.53-2.33,4.74-3.43,7.21c-4.03,9.01-8.32,13.31-14.66,13.95
		c11.31-11.39,12.48-13.67,9.95-22.61c-7.89,18.77-24.36,23.03-40.13,28.92c-12.55,4.68-17.81,16.74-20.1,28.31
		c-2.88,14.53-3.21,29.71-3.28,44.61c-0.11,24.48,2.2,48.95,2.61,73.4c0.55,31.99,1.1,64,1.53,96c0.97,73.07-1.07,146.13-1.02,219.2
		c0.04,57.21-3.08,114.45,1.16,171.64c1.14,15.35,10.09,25.68,25.5,28.56c7.88,1.47,15.84,1.83,23.87,2.07
		c19.12,0.58,38.11-2.02,57.24-1.38c25.27,0.85,50.57,1.09,75.86,1.15c13.75,0.03,25.85-4.6,31.62-18.05
		c4.04-9.43,5.47-19.87,5.14-30.23c-0.98-30.69-1.56-61.4-0.43-92.06c1.45-39.46-0.67-78.89,0.11-118.35
		c0.71-35.78,0.55-71.61-0.42-107.44c-0.44-16.08-0.08-32.38-0.38-48.58c-0.51-27.34-0.55-54.71-1.01-82.01
		c-0.7-41.48,1.05-83.06-3.54-124.53c-2.2-19.85-9.74-34.4-27.47-43.37c-12.2-6.17-26.72-9.29-31.57-24.83
		c-0.22-0.71-1.59-1.6-2.32-1.52c-1.7,0.19-1.48,1.78-1.43,3.06C351.75,93.89,354.88,96.4,352.79,99.75z M277.09,15.4
		c-3.34,1.58,0.49,7.07-3.26,7.48c-4,0.44-1.72-6.01-5.24-6.98c-2.28,2.33,0.98,6.91-2.65,7.51c-3.9,0.65-0.62-5.99-4.74-6.39
		c-3.34,1.92,0.63,7.86-3.7,8.15c-3.55,0.23-1.88-5.23-4.31-7.24c-2.3,2.68,1.09,7.77-3,8.71c-3.55,0.81-1.79-5.19-5.04-6.28
		c-1.1,2.61,1.17,6.65-2.91,7.31c-7.32,1.19-2.11,5.53-1.93,8.1c0.26,3.7,2.64,5.63,7.03,5.03c21.98-3.01,44.1-3.62,66.28-3.92
		c17.09-0.23,33.96,1.65,50.86,3.36c4.46,0.45,5.45-1.12,7.09-4.68c3.27-7.1-4.17-9.81-4.6-16.24c-2.18,2.56-0.41,6.76-3.99,6.05
		c-4.2-0.84-1.27-5.62-3.27-8.6c-1.57,3.06-0.68,7.48-4.28,7.38c-4.52-0.13-1.71-5.7-4.24-7.83c-2.5,1.92,0.28,5.85-2.95,7.32
		c-4-0.73-0.85-5.86-4.24-7.02c-1.51,2.43,0.52,6.14-3.1,7.46c-4.09-2.08-1.32-6.75-3.61-9.62c-2.79,1.39-0.19,6.43-4.08,6.38
		c-2.78-0.04-1.68-3.79-3.32-5.33c-1.15,2.04,0.58,5.84-2.2,6.1c-4.73,0.43-2.25-5.35-4.72-7.36c-2.18,2.13-0.52,6.07-3.96,7.16
		c-3.41-1.21-0.92-5.41-3.56-7.02c-2.73,1.69,0.7,6.53-3.09,6.88c-3.34,0.31-1.62-4.77-4.23-6c-1.5,2.01,0.37,5.54-3.06,6.31
		c-2.99-1.7-1.39-5.44-3.7-7.51c-2.19,2.78,0.98,8.26-2.98,8.78c-4.92,0.64-2.28-6.63-6.18-8.33c-2.74,2.38,1.73,6.89-2.46,8.71
		c-3.4-1.11-1.79-5.29-4.4-6.89c-2.16,1.74-0.37,6.2-3.22,6.4C277.37,23.04,280.99,16.49,277.09,15.4z M320,63.89
		c-25.15-1.16-45.65,1.53-66.24,2.23c-2.82,0.1-5.68,0.4-8.42,1.04c-5.07,1.2-6.37,4.92-5.3,9.51c0.98,4.22,3.22,6.24,8.3,5.77
		c17.18-1.59,34.43-2.47,51.71-2.27c20.33,0.24,40.7-1.18,60.98,1.54c6.35,0.85,8.39-2.12,6.96-8.29
		c-1.37-5.93-4.59-8.21-10.78-8.71C343.3,63.61,329.39,64.23,320,63.89z M312.55,58.69c14.05,1.04,30.95-3.3,47.95-0.36
		c5.25,0.91,6.43-3.13,6.9-7.25c0.54-4.63-2.3-5.38-6.14-5.81c-37-4.15-73.99-2.89-110.98,0.08c-6.44,0.52-9.64,4.46-9.11,10.73
		c0.59,6.96,5.74,5.38,9.87,5.09C270.56,59.83,290.06,58.29,312.55,58.69z"/>
	<path class="st2" d="M409.69,742.85c-0.61-187.46-0.37-375.02-3.51-562.94c3.02,1.39,2.29,4.19,2.53,6.43
		c3.52,33.22,1.13,66.53,1.41,99.8c0.29,34.6-0.2,69.22,0.26,103.82c0.35,26.28,2.97,52.58,2.24,78.8
		c-0.86,30.98-0.57,61.94-0.74,92.91c-0.31,57.84-0.13,115.69-0.2,173.54C411.69,737.71,412.38,740.33,409.69,742.85z"/>
	<path class="st2" d="M210.28,734.05c-3.96-134.58-2.94-269.24-3.21-403.88C212.63,464.74,208.14,599.41,210.28,734.05z"/>
	<path class="st2" d="M206.5,320.99c0.12-59.12-6.17-118.35,2.07-177.37C203.52,202.69,209.62,261.88,206.5,320.99z"/>
	<path class="st2" d="M314.49,770.68c12.58-1.37,25-1.78,37.43,0c10.26,1.47,20.49,2.08,30.81,0.64c7.85-1.1,14.79-4.16,21.19-9.01
		c-1.23,4.24-4.57,6.32-8.14,7.96c-8.11,3.73-16.74,5.61-25.61,4.84c-17.45-1.53-34.83-4.09-52.42-2.08
		C316.57,773.17,315.13,773.01,314.49,770.68z"/>
</g>
<g id="Capilar" class="st0">
	<path class="st2" d="M334.99,783.48c-25.73,0-51.47,0.17-77.19-0.09c-8.79-0.09-17.64-0.76-26.34-2.05
		c-19.08-2.83-32.95-19.28-36.78-40.13c-4.95-26.95-4.53-54.21-5.13-81.28c-1.28-57.52-5.69-114.94-5.21-172.5
		c0.29-34.94,1.32-69.89,4.43-104.67c2.56-28.57,16.1-50.46,43.46-62.45c9.35-4.1,18.51-8.86,25.94-16.16
		c2.52-2.47,5.4-5.32,3.8-9.17c-1.53-3.69-5.44-2.48-8.48-2.61c-18.66-0.8-21.15-3.11-22.1-21.75c-0.34-6.69-0.35-13.42,0.02-20.11
		c0.28-5.05,1.65-10.27,7.33-11.75c7.02-1.83,7.37-6.45,6.49-12.22c-2-12.97-1.56-26.06-1.61-39.12
		c-0.04-11.02,4.28-19.22,15.69-22.18c6.75-1.75,8.88-5.99,10.1-12.86c5.16-29.22,9.39-58.34,8.46-88.24
		c-0.4-12.99,5.25-25.61,12.33-36.72c11.09-17.4,30.21-16.94,40.98,0.84c9.81,16.2,13.27,34.42,12.69,52.89
		c-0.78,24.72,8.39,47.9,9.42,72.25c0.22,5.26,4.22,7.33,9.23,8.62c17.78,4.59,21.21,9.22,21.96,27.21
		c0.51,12.34,1.29,24.67,1.94,37c0.15,2.84,0.08,5.87,2.48,7.83c15.23,12.42,11.13,30.1,12.18,46.14
		c0.53,8.16-6.36,9.54-13.24,10.41c-6.12,0.77-15.09-2.73-17.33,5.68c-2.13,7.99,5.73,12.26,11.23,16.42
		c10.89,8.24,24.22,12.05,34.9,21.53c14.9,13.22,19.48,29.3,21.24,47.74c3.87,40.49,0.77,81.14,3.13,121.67
		c0.75,12.98-0.98,26.08-0.9,39.13c0.19,30.34,0.51,60.69,1.31,91.02c0.82,31.46,0.25,63.12-4.46,93.95
		c-5.61,36.73-21.22,53.43-58.54,54.21c-14.47,0.3-28.95,0.05-43.42,0.05C334.99,782.52,334.99,783,334.99,783.48z M272.07,296.04
		c-9.38,17.55-25.73,26.27-42.06,35.36c-17.41,9.69-28.93,23.07-31.15,44.69c-3.75,36.52-6.23,72.89-5.77,109.68
		c0.76,61.4,1.68,122.8,3.29,184.19c0.55,21.14,2.08,42.29,4.25,63.33c2.95,28.7,16.29,41.04,45,41.32
		c43.77,0.43,87.54-0.28,131.31,0.01c31.92,0.21,46.37-12.12,53.08-46.8c4.5-23.31,3.85-47.05,4.08-70.6
		c0.4-40.93,0.54-81.86-0.99-122.81c-1.41-37.68,0.15-75.48-1.12-113.17c-0.69-20.31-1.26-40.98-8.09-60.62
		c-3.42-9.85-8.18-18.93-17.42-24.54c-17.32-10.52-37.27-17.71-46.33-38.42c2.41,14.98,7.24,21.55,19.5,28.57
		c7.34,4.21,14.68,8.49,21.63,13.3c12.06,8.35,19.95,28.85,16.29,41.15c-0.52-0.38-1.42-0.7-1.48-1.14
		c-3.41-23.89-17.15-39.42-38.84-48.88c-10.23-4.46-16.61-12.85-20.86-22.95c-1.98-4.71-3.88-9.45-5.81-14.17
		c-4.37,17.23-8.09-2.12-11.19,0.12c-3.33,3.01-1.27,8.13-5.36,10.26c-3.48-2.64-0.91-8.75-5.84-10.26c-4.12,1.69-1.15,7.14-5,8.69
		c-4.73-0.22-1.08-6.61-5.13-7.37c-2.34,2.87-0.21,7.66-4.74,9.05c-3.61-2.71,0.66-8.9-3.65-10.11c-5.57-1.56-1.89,7.99-7.49,7.72
		c-2.6-2.03-0.81-7.65-4.51-7.62c-5.99,0.05-2,7.44-5.73,9.78c-4.24-1.33-2.15-6.29-4.76-8.49c-3.31,1.43-0.21,6.61-4.26,7.36
		c-3.5-1.06-1.45-5.18-4.74-7.12c-0.79,15.29-10.08,24.85-21.32,32.74c-14.43,10.13-31.89,15.88-43.18,30.69
		c0.61-10.64,8.66-14.83,15.85-19.43c10.39-6.66,21.48-12.26,30.98-20.26C267.56,313.34,272.41,306.1,272.07,296.04z M328.28,43.71
		c-0.1,11.98,2.6,23.93,0.79,36.53c-10.01-8.52-15.22-16.93-7.59-29.23c2.65-4.28-0.07-9.5-2.86-13.85
		c-1.73-2.71-5.36-4.42-5.47-7.97c3.07-2.05,5.25,1.52,8.57,0.4c-5.35-6.43-11.05-8.61-17.38-4.54
		c-7.5,4.82-14.26,11.18-16.12,20.15c-4.16,20.01-6.32,40.24-4.73,60.83c1.02,13.14,5.85,26.42-0.23,39.62
		c-0.83,1.81-0.37,4.19-0.71,6.27c-1.26,7.58,0.92,10.97,9.51,10.16c13.66-1.28,27.42-1.83,41.14-1.89
		c8.43-0.04,10.76-3.62,10.92-11.53c0.33-16.84-4.91-32.67-7.77-48.93C333.09,81.14,334.03,61.97,328.28,43.71z M311.3,243.6
		c-15.12,0-27.83-0.16-40.53,0.03c-30.17,0.46-28.93-7.75-28.66,30.86c0.01,1.06,0.14,2.11,0.18,3.17c0.17,4.64,2.57,7.88,7.18,7.17
		c10.39-1.6,20.47,1.79,30.6,1.39c34.83-1.37,69.65-3.49,104.53-2.46c6.44,0.19,9.48-2.17,9.14-8.38
		c-0.34-6.33-1.13-12.63-1.81-18.94c-0.92-8.61-5.11-12.55-14.4-13.31C354.6,241.25,331.77,243.99,311.3,243.6z M318.13,167.19
		c-18.69,0-37.33,0.51-55.78,3.98c-7.81,1.47-11.59,5.79-11.09,13.98c0.83,13.71,1.96,27.45,1.81,41.16
		c-0.1,9.8,5.49,9.59,12.32,9.51c8.29-0.09,7.35-4.82,6.68-10.74c-1.65-14.75-1.55-29.56,1.01-44.27c0.35-1.99,0.21-4.6,2.99-4.83
		c2.68-0.23,3.47,2.3,3.93,4.18c0.66,2.7,0.84,5.57,0.84,8.37c0,11.99,0.09,23.99-0.33,35.97c-0.24,6.94,2.3,11.07,9.38,11.14
		c17.96,0.17,35.92,0.61,53.89-0.76c7.77-0.59,8.55-3.84,7.66-10.86c-1.72-13.59-2.29-27.35-2.8-41.06
		c-0.14-3.64,0.66-9.02,5.23-9.22c5.09-0.23,4.64,5.35,5.3,8.9c2.73,14.68,2.64,29.45,0.91,44.25c-0.34,2.87-0.76,6,3.29,6.48
		c4.32,0.51,5.49-2.3,5.39-5.94c-0.07-2.82-0.27-5.64-0.52-8.44c-1.21-13.61-5.06-27.05-2.25-40.93c1.08-5.33-3.17-6.13-6.98-7.38
		C345.64,166.28,331.88,166.9,318.13,167.19z"/>
	<path class="st2" d="M418.01,397.8c9.77,105.52,6.25,211.25,5.72,316.94C420.05,609.12,420.07,503.44,418.01,397.8z"/>
	<path class="st2" d="M206.05,573.19c5.83,61.17-0.32,120.2,8.61,179.86c-6.77-4.16-6.58-9.55-7.15-14.59
		c-4.58-40.74-3.62-81.65-3.98-122.52c-0.09-10.22,0.26-20.45-1.75-30.58C201.14,582.11,200.69,578.53,206.05,573.19z"/>
	<path class="st2" d="M208.45,391.21c-1.36,54.29-2.66,108.57-4.42,162.86c-4.6-54.29-0.82-108.53-0.93-162.79
		C204.88,391.26,206.67,391.23,208.45,391.21z"/>
	<path class="st2" d="M229.66,763.61c56.35-0.3,112.21-8.31,168.14-0.93c-0.59,1.62-3.73,1.71-6.55,2.36
		c-11.24,2.57-22.49,1.55-33.61-0.39c-35.98-6.27-71.57,1.9-107.36,2.55C242.99,767.33,235.76,767.56,229.66,763.61z"/>
	<path class="st2" d="M342.65,200.73c-0.99,8.79-1.77,16.81-2.86,24.78c-0.32,2.33-0.99,5.16-4.16,5.21
		c-2.73,0.04-3.21-2.51-3.51-4.49c-2.39-15.6-4.32-31.25-2.32-47.05c0.39-3.08,1.18-6.76,5.36-6.57c4.02,0.18,4.68,3.71,5.08,6.89
		C341.15,186.8,341.91,194.11,342.65,200.73z"/>
	<path class="st2" d="M320.17,203.68c0,7.73,0.19,15.46-0.11,23.18c-0.09,2.33-1.25,5.1-4.38,5.08c-3.09-0.01-3.95-2.54-4.34-5.07
		c-2.42-15.73-3.16-31.49-0.51-47.27c0.46-2.77,1.16-6.15,4.56-6.27c3.65-0.13,4.28,3.5,4.51,6.14c0.72,8.04,0.99,16.12,1.43,24.18
		C320.95,203.66,320.56,203.67,320.17,203.68z"/>
	<path class="st2" d="M299.97,201.17c-0.09,8.39,2.3,16.78,0.15,25.17c-0.52,2.02-0.65,4.57-3.41,4.47
		c-2.59-0.09-3.08-2.59-3.41-4.61c-2.43-14.93-3.42-29.96-2.39-45.07c0.22-3.23,1.44-6.79,5.4-6.55c3.65,0.21,3.58,3.81,3.62,6.58
		C300.05,187.83,299.97,194.5,299.97,201.17z"/>
	<path class="st2" d="M256.25,200.23c0-5.97-0.08-11.94,0.04-17.9c0.05-2.51,0.63-5.34,3.81-5.28c2.39,0.04,3.28,2.43,3.59,4.58
		c2.16,14.65,1.91,29.42,2.23,44.16c0.05,2.5-0.6,5.44-3.5,5.72c-3.03,0.3-3.75-2.61-4.33-5.05
		C256.06,217.82,256.28,209.01,256.25,200.23z"/>
</g>
<g id="Facial" class="st0">
	<path class="st2" d="M41.61,405.93c0-91.87-0.23-183.74,0.18-275.61c0.09-19.86,1.78-39.78,3.93-59.54
		c2.5-23,10.02-29.29,32.73-32.94c34.45-5.55,69.28-2.14,103.85-5.08c12.7-1.08,26.25,1.66,35.71,11.59
		c8.7,9.14,14.72,5.77,22.5-1.02c21.54-18.78,47.27-27.98,75.44-30.92c68.64-7.16,137.3-1.57,205.95-0.16
		c12.07,0.25,19.96,6.6,25.94,17c13.63,23.71,16.97,49.92,17.76,76.21c1.91,64.18,8.58,128.31,4.85,192.56
		c-5.04,86.65-2.56,173.38-4.35,260.06c-1.08,52-6.14,103.82-15.16,155.11c-8.49,48.27-19.35,58.39-68.51,64.77
		c-55.66,7.22-111.33,6.52-167.1,0.55c-30.73-3.29-56.94-14.76-77.86-37.64c-7.46-8.16-13.38-10.46-20.59,0.94
		c-5.85,9.25-16.19,12.26-26.97,12.28c-37.26,0.07-74.52-0.02-111.79,0c-18.23,0.01-28.39-9.83-32.87-26.68
		c-4.51-16.94-4.84-34.25-4.82-51.64c0.09-89.94,0.04-179.89,0.04-269.83C40.85,405.93,41.23,405.93,41.61,405.93z M558.02,289.61
		c-0.37,0-0.74-0.01-1.11-0.01c0-31.46,1.93-63.08-0.48-94.35c-3.05-39.66,0.95-79.75-7.02-119.01
		c-7.53-37.12-21.33-48.87-58.83-50.95c-46.86-2.61-93.77-1.32-140.57,0.75c-30.78,1.36-61.25,6.68-89.66,20.11
		c-19.38,9.16-28.95,23.42-28.69,45.57c1.12,95.51-6.23,190.97-0.92,286.56c3.24,58.32-0.13,116.71-2.58,175.06
		c-1.69,40.37-1.28,80.86-0.85,121.29c0.13,11.89-2.84,25.5,5.61,35.43c23.24,27.31,49.43,50.43,87.68,53.73
		c54.54,4.7,108.99-0.47,163.46-1.56c25.88-0.52,42.23-15.11,49.13-40.99c8.47-31.78,14.96-63.91,15.97-96.68
		C552.6,512.91,555.14,401.25,558.02,289.61z M54.78,386.53c-0.04,0-0.08,0-0.11,0c0,56.54-0.3,113.09,0.09,169.63
		c0.33,48.13-2.54,96.35,3.49,144.36c2.16,17.22,5.59,36.95,25.05,38.51c35.72,2.87,71.86,1.09,107.81,0.28
		c11-0.25,17.77-6.09,20.04-19.01c3.72-21.18,2.03-42.08,2.01-63.19c-0.11-133.63,0.13-267.27,0.98-400.9
		c0.08-12.3-1.22-132.09-0.33-180.21c0.27-14.78-8.46-25.64-22.89-26.55c-37.77-2.38-75.66-3.43-113.35,2.43
		c-12.14,1.88-17.93,8.91-18.81,20.69c-1.34,17.91-3.72,35.82-3.8,53.74C54.56,213.05,54.78,299.79,54.78,386.53z"/>
	<path class="st2" d="M528.39,470.3c-2.45-130.19,8.42-260.38,0.81-390.73c11.26,14.13,10.26,31.36,10.33,46.89
		c0.4,93.06-1.55,186.09-5.75,279.08c-0.97,21.56-0.14,43.21-0.14,64.82C531.89,470.33,530.14,470.31,528.39,470.3z"/>
	<path class="st2" d="M502.63,50.77c-16.81,5.22-33.07,2.61-49.14,1.4c-52.51-3.95-104.87,1.3-157.29,2.42
		c-14.04,0.3-27.08,6.55-38.85,15.2c-5.69,4.18-10.22,11.64-21.82,10.41c16.65-21.61,37.15-33.37,61.82-35.53
		c65.16-5.68,130.47-3.21,195.74-1.09C497.02,43.71,500.47,44.89,502.63,50.77z"/>
	<path class="st2" d="M305.47,746.12c61.54-0.9,118.82,4.71,175.97-1.4C466.15,759.36,330.04,760.87,305.47,746.12z"/>
</g>
<g id="Layer_6" class="st0">
	<g class="st2">
		<path d="M311.54,782.27c-23.05-0.33-46.16,2.57-69.18-1.33c-18.05-3.06-23.28-8.41-23.51-26.8c-0.34-26.96,0.78-53.78-4.37-80.72
			c-5-26.14-1.05-53.19-3.84-79.8c-3.39-32.4-5.31-64.95-7.89-97.43c-1.19-14.97-3.17-29.91-3.5-44.9
			c-1.12-52.03-4.29-103.97-5.62-156c-1.29-50.48-2.28-101.11-9.5-151.29c-1.93-13.4-0.62-27.05-1.56-40.62
			c-1.74-25.12-7.95-49.79-6.52-75.27c0.6-10.64,3.77-16.06,14.68-17.59c21.75-3.05,43.14,0.55,64.64,2.27
			c29.3,2.34,58.61,2.16,87.88,0.28c21.54-1.39,42.96-4.39,64.62-1.35c8.09,1.13,14.03,4.24,16.41,12.27
			c4.61,15.53,3.06,30.52-5.6,44.26c-2.29,3.63-3.43,6.93-3.66,11.09c-1.82,32.5-5.62,65.01-5.33,97.48
			c0.36,40.04-6.25,79.42-7.55,119.26c-2.79,85.75-4.05,171.5-4.63,257.29c-0.25,37.34,0.26,75.19-5.65,111.84
			c-5.45,33.83-2.44,67.04-3.18,100.53c-0.25,11.1-5.37,15.88-21.05,16.39C348.96,782.74,330.24,782.27,311.54,782.27z
			 M375.71,658.11c-3.81-3.5-3.06-7.33-2.84-10.71c1.87-27.78,0.45-55.59,1.52-83.42c3.23-83.88,7.81-167.72,9.4-251.68
			c0.76-40.28,3.32-80.5,5.97-120.72c2.17-32.84,4.36-65.85,3.03-98.86c-0.23-5.63,2.46-11.42-0.15-16.9
			c-4.88-0.23-2.68,5.14-6.68,6.11c0.34-10.15-9.05-1.22-12.47-6.48c-1.88-2.89-2.96-2.19-10.38,9.31
			c-5.47-1.48-0.87-9.7-6.87-10.77c-4.02,1.76-1.13,7.63-5.8,8.79c-3.89-1.78-0.68-8.74-6.24-9.01c-5.82-0.28-1.63,8.72-6.69,8.76
			c-5.02-1.23-4.31-11.98-8.45-7.42c-5.76,6.33-7.73,3.1-10.61-0.95c-3.91,2.9-1.55,8.86-6.53,9.91c-4.62-2.09-0.95-8.14-5.18-10.15
			c-5.29,1.75-1.47,8.66-6.69,10.76c-3.01-2.24-1.83-5.99-2.99-8.83c-1.13-2.75-4.59-4.88-5.7-2.19c-4.8,11.67-8.59,4.6-11.97-0.76
			c-4.56,3.59-0.96,11.9-7.23,11.78c-5.26-0.1-0.66-8.33-5.38-10.63c-5.05,0.64-2.52,7.61-7.3,8.59c-3.49-0.83-1.76-5.74-4.39-7.36
			c-3.28,2.97-1.19,8.09-5.32,9.52c-5.15-0.45-3.65-13.17-7.91-7.3c-6.97,9.6-8.12-0.36-10.93-1.7c-3.94,2.58-1.89,8.82-6.71,8.78
			c-4.23-0.03-1.92-5.79-4.79-7.62c-4.65,6.48-4.65,6.48-10.24,2.22c-2.9,3.12,0.31,8.98-4.96,11.28c-3.34-2.51-2.48-6.68-5.09-12.5
			c0,12.09,0,21.41,0,30.73c-6.82-9.38-3.91-20.54-6.76-26.97c0,17.03-0.37,37.13,0.08,57.21c0.83,37.02,6.93,73.69,6.9,110.83
			c-0.03,34.46,0.22,69.04,3.08,103.35c5.85,70.16,6.33,140.59,12.53,210.72c3.22,36.45,4.6,73.07,6.83,109.6
			c0.48,7.85,2.51,14.67,11.76,16.09c39.26,6.01,78.79,8.19,118.39,6.06c18.48-0.99,30.14-12.54,31.54-26.66
			c5.32-53.69,4.29-107.64,6.43-161.46c1.94-48.7-0.35-97.52,2.28-146.27c1.56-28.91,1.83-57.89,3.05-86.83
			c2.61-62.22,5.49-124.42,8.15-186.63c0.15-3.63,0.99-7.69-1.77-11.43c-2.73,3.21-1.74,6.27-2.11,9.08
			c-2.44,18.63,1.59,37.42-0.4,55.87c-3.46,32.11-3.95,64.34-5.7,96.5c-1.69,31.06-2.76,62.17-3.57,93.3
			c-1.27,49.08-2.31,98.18-4.85,147.25c-2.79,53.81-3.56,107.73-5.31,161.59C379.5,645.84,379.7,652.05,375.71,658.11z
			 M328.86,62.09c26.38,0,45.06-0.05,63.74,0.01c24.96,0.08,24.55,3.78,24.63-24c0.05-17.02-1.9-18.96-18.88-18.98
			c-63.02-0.1-126.03-0.11-189.05-0.28c-28.22-0.08-29.21,0.86-26.89,28.88c1.27,15.31,2.59,16.51,17.96,16.76
			C245.8,65.23,291.13,60.84,328.86,62.09z M243.77,741.6c0.69,6.5,2.12,13.02,1.9,19.49c-0.31,8.94,2.85,12.21,12.03,12.13
			c34-0.3,68.03,1.21,101.99-1.13c7.85-0.54,18.8-0.03,19.29-11.87c0.75-17.93,0.06-35.93-0.17-53.9c-0.07-5.18-2.78-6.79-8.02-5.9
			c-17.7,2.99-35.51,3.56-53.45,2.18c-28.11-2.17-56.38-0.39-84.89-3.41c9.05,4.69,7.72,11.49,4.88,18.51
			c-0.78,1.92-3.25,4.92-0.7,5.48c14.61,3.19,2.56,9.72,1.51,14.07c-0.67,2.77-4.88,5.55-2.92,8.63c4.42,6.9,4.39,14.04,3.01,21.72
			C242.13,759.13,239.33,749.86,243.77,741.6z"/>
		<path d="M200.83,135.53c0.97,5.67,2.52,11.31,2.81,17.02c2.48,49.73,6.41,99.37,7.51,149.2c0.88,39.88,4.48,79.71,7.2,119.53
			c1.57,23.03,1,46.11,2.87,69.17c2.58,31.74,1.95,63.76,5.12,95.42c2.22,22.22,2.78,44.55,5.56,66.7
			c0.43,3.43,1.42,7.28-4.52,12.53c-14.61-177.67-21.38-353.54-30.96-529.23C197.88,135.75,199.36,135.64,200.83,135.53z"/>
	</g>
</g>
<g id="Corporal_1_">
	<path d="M269.88,12.57c5.33-0.16,10.63,0.11,15.83,1.41c28.93,7.22,57.86,2.73,86.65-0.7c27.49-3.28,54.63-2.04,81.69,3.04
		c4.62,0.87,9.28,2.44,13.44,4.62c5.64,2.96,15.37,3.4,12.89,13.18c-1.81,7.15-18.22,12.93-25.15,10.26
		c-31.64-12.18-64.26-13.4-97.41-8.65c-5.69,0.82-7.64,3.46-6.99,9.76c1.52,14.71,1.93,29.54,2.71,44.32
		c0.14,2.7,0.03,5.44,1.61,7.46c0.98,1.25,1.65,0.8,2.44,1.86c2.08,2.76-1.2,6.18,0.7,9.75c0.7,1.31,1.09,0.76,3.06,3.17
		c1.81,2.21,3.12,3.81,3.2,5.86c0.11,2.83-2.26,3.37-1.96,6.03c0.06,0.53,0.23,1.15,2.95,4.95c1.27,1.78,1.91,2.67,2.78,3.76
		c3.08,3.85,11.79,18.29,7.36,25.06c-0.9,1.37-1.06,3.37-2.71,5.33c-1.05,1.24,0.07,2.62,0.81,3.81c3.35,5.42,2.38,10.42-2.5,14.04
		c-3.57,2.65-2.95,4.31-0.54,7.27c5.35,6.55,9.27,13.32,2.75,21.79c-2.72,3.53,1.36,3.91,3.59,4.43c9.31,2.14,18.38,5,26.7,9.73
		c38.25,21.77,56.97,56.22,60.15,98.71c5.9,78.68,4.24,157.57,3.3,236.38c-0.58,48.91-2.66,97.81-4.91,146.68
		c-0.74,15.99-5.34,31.13-17.09,43.53c-12.74,13.45-28.2,17.61-45.74,15.7c-48.77-5.3-97.63-5.3-146.57-3.8
		c-19.52,0.6-39.29,1.88-57.83-6.41c-19.51-8.72-32.17-21.94-35.32-44.74c-3.94-28.51-1.8-56.92-1.89-85.33
		c-0.3-87.53-0.12-175.07,0.73-262.6c0.17-17.84-0.59-35.85,1.53-53.6c4.49-37.55,25.45-64.14,57.48-82.75
		c7.48-4.35,15.03-8.74,23.46-11.06c2.65-0.73,4.24-1.75,4.74-3.17c0.54-1.53-0.43-2.83-1.54-5.23c-1.93-4.19-2.99-8.83-2.86-12.21
		c0.14-3.6,1.52-3.28,2.59-7.92c2.17-9.39-2.65-14.45,1.04-19.85c0.98-1.43,1.88-1.9,2.11-3.42c0.45-2.99-2.47-4.86-4.3-8.25
		c-2.88-5.32-1.42-11.29-1.28-11.84c1.75-6.75,9.35-14.38,11.06-15.91c0.35-0.31,1.39-1.2,1.54-2.55c0.12-1.01-0.37-1.66-0.68-2.47
		c-0.93-2.44,0.09-5.02,0.47-5.96c1.3-3.26,4.11-4.81,5.45-5.54c2.08-1.14,4.7-0.83,4.48-1.58c-3.03-10.59,11.97-14.45,8.72-26.47
		c-2.88-10.66,0.02-22.65-1.41-34.16c-0.92-7.45-3.46-12.58-9.64-16.28c-1.19-0.71-2.38-1.52-3.36-2.5c-3.29-3.29-8-6.18-5.63-11.89
		c2.07-5,6.81-5.16,11.43-5.06C265.97,12.6,267.92,12.57,269.88,12.57z M163.7,640.33c0.54,0,1.08,0,1.62,0
		c0,20.69-0.07,41.38,0.02,62.08c0.14,32.91,16.23,45.21,42.35,49.99c16.26,2.97,32.84,2.15,49.35,1.44
		c27.66-1.18,55.33-1.69,82.99,0.12c20.63,1.35,41.27,3.5,61.91,3.51c34.51,0.02,51.42-15.62,55-50.03
		c1.41-13.54,0.7-27.3,1.22-40.95c0.94-24.85,2.29-49.68,3.09-74.53c0.85-26.54,1.73-53.1,1.71-79.64
		c-0.02-18.14-2.88-36.34-2.15-54.41c1.57-39.12,0.8-78.15-0.87-117.23c-1.12-26.06-7.78-50.21-21.72-72.18
		c-18.51-29.18-43.94-48.71-79.24-51.38c-21.97-1.66-44.06-2.66-66.19-2.19c-28.42,0.6-55.93,4.34-79.42,21.85
		c-21.99,16.39-39.78,35.71-43,65.01c-2.17,19.75-3.93,39.55-4.44,59.33c-1.49,57-0.24,114.03-2.01,171.05
		C162.79,568.18,163.7,604.27,163.7,640.33z M340.7,69c0-4.88,0.02-9.06,0-13.25c-0.08-15.21-0.09-15.21-14.89-13.8
		c-1.99,0.19-3,0.08-4.19,0.13c-15.99,0.74-32.04,0.95-34.66,0.46c-1.49-0.28-2.61-0.54-4.08-0.3c0,0-4.91-0.63-4.98,2.63
		c-0.35,15.89-0.9,31.8,0.94,47.64c0.34,2.92,1.43,5.58,5.05,5.59c18.95,0.03,37.91,0.02,56.86-0.04c1.15,0,3.54,0.04,2.4-2
		C338.13,87.09,342.64,77.48,340.7,69z M264.52,24.21c1.72-1.19,2.56-0.29,3.45,0.28c14.09,8.94,30.41,10.33,46.19,13.4
		c3.74,0.73,7.72,0.11,11.59-0.96c41.45-11.45,82.98-13.32,124.57-0.63c3.2,0.98,6.33,2.61,9.57,2.86
		c5.01,0.39,10.34-1.83,11.76-6.23c1.22-3.77-4.42-4.96-7.45-6.39c-4.51-2.13-9.3-3.85-14.15-5.01c-13.9-3.34-28.19-3.9-42.37-4.46
		c-20.44-0.8-40.51,3.82-60.8,5.27c-11.4,0.82-23.02,2.23-34.24,0.85c-12.95-1.59-26.17-1.95-38.86-5.66
		c-3.2-0.94-6.67-0.95-9.94,0.09c-2.05,0.65-4.66,0.9-5.23,3.56c-0.55,2.54,1.18,4.12,3,5.54c5.23,4.09,11.07,6.64,19.45,7.97
		C274.82,30.11,268.09,29.67,264.52,24.21z M279.23,186.05c-7.79,0.39-15.89,0.43-23.9,1.32c-4.79,0.53-7.34,4.45-6.9,9.05
		c0.43,4.52,4.71,3.9,7.96,4.14c4.72,0.34,9.48,0.36,14.19,0.85c31.11,3.24,62.17-1.13,93.26-0.5c5.19,0.11,6.31-2.78,3.56-7.11
		c-4.39-6.92-11.67-7.67-18.5-7.19C325.74,188.25,302.64,187.17,279.23,186.05z M248.92,172.59c-1.29,7,2.81,7.75,7.24,7.66
		c10.32-0.21,20.63-0.86,30.95-0.99c21.8-0.29,43.6-0.38,65.41-0.5c4.8-0.03,9.51-0.67,13.99-2.3c1.15-0.42,1.91-1.1,2.26-1.95
		c0.59-1.41-0.19-2.95-0.48-3.53c-1.52-3.01-4.86-4.32-6.47-4.84c-6.5-2.07-92.54-3.64-99.89,0.15c-0.43,0.22-2.82,1.17-5.98,3.04
		C252.96,171.08,249.84,172.89,248.92,172.59z M255.36,143.56c12.56-2.42,47.74-0.07,68.67-0.34c11.71-0.15,23.41-0.86,35.12-1.39
		c2-0.09,4.18-0.66,4.3-3.08c0.07-1.52-1.13-2.68-1.92-3.43c-3.47-3.31-5.21-4.96-6.88-5.76c-5.13-2.43-8.43-0.09-17.3-0.05
		c-4.65,0.02-7.07-1.19-12.1-1.38c-27.04-1.04-59.66,0.57-64.89,3.23c-6.19,3.14-10.99,9.83-9.68,11.83
		C251.44,144.37,254.22,143.78,255.36,143.56z M330.92,149.46c-16.94,0.47-57.1-0.39-70.27-0.39c0,0-3.58,0-8.25,1.81
		c-3.08,1.19-3.66,2.08-3.87,2.72c-0.63,1.93,1.16,4.52,3.23,5.74c1.95,1.15,3.49,0.67,8.15,0.69c3.44,0.01,4.01,0.46,7.51,0.45
		c20.92-0.09,41.83-0.11,62.74-0.43c11.14-0.17,22.28-0.79,33.41-1.4c1.25-0.07,4.18-0.41,5.13-2.3c0.96-1.91-0.35-4.97-2.22-6.69
		c-3.61-3.33-9-1.39-19.25-0.47C341.81,149.67,336.35,149.3,330.92,149.46z M258.26,119.79c0.11,0.8,0.4,1.94,1.2,2.97
		c3.08,3.93,10.84,2.53,13.47,2.11c15.69-2.52,53.68-1.3,67.73-1.48c5.11-0.06,9.92-1.37,14.83-2.25c1.82-0.32,3.8-1.28,4.27-3.53
		c0.28-1.34-0.76-2.08-1.78-2.51c-2.15-0.91-19.19-0.59-24.23-0.61c-23.13-0.08-46.32-1.62-69.4,1.31
		C262.03,116.1,259.09,115.42,258.26,119.79z M349.7,103.14c-13.44-0.42-27.25-0.65-41.41-0.65c-12.08,0-23.91,0.16-35.46,0.47
		c0.32,2.55,1.1,4.26,2.36,5.33c2.14,1.83,5.1,1.56,6.16,1.49c9.12-0.68,47.2,0.12,57.24,0.54c3.82,0.16,10.84,0.57,12.19-2.51
		C351.42,106.31,350.56,104.48,349.7,103.14z"/>
	<path d="M447,352.78c0.93,110.72,6.03,221.58,0.42,332.46C448.38,574.46,444.45,463.7,447,352.78z"/>
	<path d="M172.09,448.84c0-19.64-0.47-38.3,0.14-56.93c0.56-17.28,2.46-34.49,2.49-51.83c0.04-23.66,2.82-46.96,15.6-67.68
		c11.96-19.4,29.54-33.26,47.57-46.56c0.86-0.63,2.11-0.78,3.67,1.2c-3.03,2.55-5.91,5.5-9.27,7.71
		c-39.07,25.68-54.87,63.09-55,108.49c-0.09,32.68-3.18,65.28-2.36,97.99C174.98,443.58,175.47,446.29,172.09,448.84z"/>
	<path d="M174.47,473.06c2.93,75.97-1.68,152.06,2.46,228.07c-3.27-4.54-3.32-9.71-3.44-14.67c-0.7-29.01-2.42-58.07-1.4-87.02
		c1.39-39.4-0.46-78.71-0.54-118.07c-0.01-2.74,0-5.49,0-8.23C172.52,473.12,173.49,473.09,174.47,473.06z"/>
	<path d="M373.24,229.61c0.63,2.62,0.98,4.07,1.69,7.04c-5.7-3.78-10.36-6.87-15.61-10.35c13.87-1.62,32.72,6.33,47.39,19.86
		c24.44,22.53,36.81,50.76,38.98,83.7c0.31,4.73,0.44,9.47,0.62,14.2c0.01,0.19-0.34,0.4-2.35,2.65
		C442.7,293.49,422.72,252.98,373.24,229.61z"/>
	<path d="M235.22,742.31c45.35-5.79,90.52-1.33,135.69,3.06C325.69,743.6,280.54,738.01,235.22,742.31z"/>
</g>
</svg>
