<svg id="Aromaterapia" xmlns="http://www.w3.org/2000/svg" viewBox="0 0 612 792"><title>Artboard 1</title><path d="M308.86,7.49c19.08-1.57,37.26.54,55.4,3.36C372.53,12.14,378,19.28,377.12,30c-.79,9.41-1,19.1-4.45,28.09-1.89,4.93-1.1,9.47,0,14.36,1.57,6.77,2.17,13.62-6.53,16.58-3.48,1.19-2.36,2.89-.85,5.22,5.56,8.49,14.59,11.4,23.38,14.08,17.19,5.23,25.13,18.22,29.19,34.07,4.11,16.07,3.87,32.75,4.59,49.23,2.58,59.32,3.19,118.67,3.33,178,.09,35,1.66,70.08,1.39,105.1-.34,45.17,1.34,90.35-1.26,135.5-.61,10.58,1.72,21,1.45,31.65-.82,32.5-1.13,65-1.55,97.52-.11,8.68-2.59,16.76-5.45,24.81-5,14-16.65,18.38-29.6,20.18-14.09,2-28.29,1.7-42.49.52-19.85-1.65-39.74-.25-59.61-.27s-39.55,2-59.35-.22c-18.07-2-33.74-17.37-35.23-36.5-1.44-18.51-2.61-37.09-2.64-55.64,0-19.59,1.5-39.18,2.16-58.77.36-10.57.74-21.15-.38-31.72-1.38-13.16.49-26.3.55-39.43q.47-97.22,0-194.42c-.1-28.36-.8-56.72-1.57-85.06-.5-18.82-2.83-37.66-2.11-56.41.82-21.43-2.7-43,0-64,2.12-16.54,4-34.53,18.75-46.9,8-6.69,17.72-9.32,26.84-13.42,2.58-1.16,5.35-1.93,7.9-3.15,2.37-1.14,4.66-2.89,4.74-5.68.1-3.28-3.19-2.67-5.17-3.5-7.07-3-11-12.23-7.92-20.27,1.37-3.63,1-6.75.68-10.4-1-10.93-1.21-21.92-2-32.89-.75-9.74,3.3-13.28,13.15-14.83C267.74,8.16,288.56,6.55,308.86,7.49Zm43.93,92.26c-3.46-1.1-3.75-4.24-4.4-6.78-1.53-5.91-3.39-8-6.64-1.13-3.07-1-1.91-5.65-5.38-5.25-3.16.37-.93,5-3.73,5.76-2.79-.9-1-5.52-4.44-5.36-2.95,1-.62,5.5-4.55,5.74-1.69-2-.55-6.3-4.26-6.67-5-.5-.88,5.56-4.14,6.5-2.83-1.19-1.65-6.54-5.39-5.73-3.43.75-.55,5.35-2.94,7.29-3.73-.66-1.32-7.33-6.12-6.55-3.28.54-.94,4.79-3.31,6.38-2.77-1.44-1.25-6.55-5.47-6.6-3.77,0-1,4.81-4.4,5.71-3.42-9.77-5.67-5-7.1,1-3.33-1.32-1.75-5.3-4.67-6.2-2.32,1.71,1,5.33-2.38,6.57-3.21-1.16-1-7.2-5.22-6.5-3.24.53-2.32,4.74-3.43,7.21-4,9-8.32,13.31-14.66,14,11.31-11.39,12.48-13.67,10-22.61-7.89,18.77-24.36,23-40.13,28.92-12.55,4.68-17.81,16.74-20.1,28.3-2.87,14.53-3.21,29.71-3.28,44.61-.12,24.49,2.19,49,2.61,73.4q.82,48,1.53,96c1,73.07-1.07,146.14-1,219.2.05,57.21-3.07,114.45,1.17,171.64,1.13,15.35,10.09,25.68,25.5,28.56a154.52,154.52,0,0,0,23.86,2.07c19.12.58,38.12-2,57.25-1.38,25.27.85,50.57,1.09,75.86,1.15,13.75,0,25.85-4.6,31.61-18,4-9.43,5.47-19.87,5.14-30.23-1-30.69-1.56-61.4-.43-92.06,1.45-39.47-.67-78.89.11-118.36q1.06-53.66-.42-107.44c-.44-16.08-.08-32.37-.38-48.57-.51-27.34-.55-54.71-1-82-.69-41.48,1-83.06-3.54-124.53-2.19-19.86-9.73-34.4-27.47-43.37-12.2-6.18-26.71-9.29-31.57-24.83a2.84,2.84,0,0,0-2.32-1.52c-1.7.19-1.48,1.78-1.43,3.06C351.75,93.89,354.88,96.4,352.79,99.75ZM277.09,15.4c-3.34,1.58.48,7.07-3.26,7.48-4,.45-1.73-6-5.25-7-2.28,2.33,1,6.91-2.65,7.51-3.91.64-.63-6-4.74-6.39-3.34,1.92.63,7.86-3.7,8.15-3.56.23-1.89-5.23-4.32-7.25-2.3,2.69,1.1,7.78-3,8.71-3.55.82-1.79-5.18-5-6.28C244,23,246.3,27,242.22,27.67c-7.32,1.19-2.11,5.53-1.93,8.09.25,3.7,2.64,5.63,7,5,22-3,44.09-3.62,66.27-3.92,17.1-.22,34,1.66,50.86,3.36,4.46.46,5.45-1.12,7.09-4.68,3.26-7.1-4.17-9.81-4.6-16.24-2.17,2.56-.41,6.76-4,6-4.2-.84-1.28-5.62-3.28-8.6-1.57,3.06-.67,7.48-4.27,7.38-4.52-.13-1.72-5.7-4.24-7.83-2.5,1.92.28,5.85-3,7.32-4-.73-.85-5.86-4.24-7-1.51,2.43.52,6.14-3.1,7.46-4.09-2.08-1.32-6.75-3.62-9.62-2.79,1.39-.18,6.43-4.08,6.38-2.78,0-1.68-3.79-3.32-5.33-1.15,2,.57,5.84-2.2,6.1-4.73.43-2.25-5.35-4.72-7.37-2.19,2.13-.53,6.07-4,7.16-3.41-1.2-.92-5.41-3.56-7-2.73,1.7.7,6.54-3.09,6.88-3.34.31-1.62-4.76-4.22-6-1.51,2,.36,5.54-3.07,6.31-3-1.7-1.39-5.44-3.7-7.51-2.19,2.77,1,8.26-3,8.78-4.92.64-2.28-6.64-6.18-8.34-2.74,2.39,1.73,6.9-2.45,8.71-3.4-1.11-1.79-5.29-4.4-6.89-2.16,1.74-.37,6.2-3.22,6.4C277.37,23,281,16.49,277.09,15.4ZM320,63.89c-25.15-1.17-45.65,1.53-66.23,2.23a44,44,0,0,0-8.42,1c-5.07,1.2-6.37,4.92-5.3,9.51,1,4.23,3.22,6.25,8.3,5.78a492.81,492.81,0,0,1,51.7-2.27c20.34.24,40.7-1.18,61,1.54,6.35.86,8.39-2.11,7-8.29-1.36-5.93-4.58-8.2-10.78-8.7C343.3,63.61,329.39,64.23,320,63.89Zm-7.45-5.2c14.05,1,30.95-3.31,47.95-.37,5.25.91,6.43-3.12,6.9-7.24.54-4.63-2.29-5.38-6.14-5.81-37-4.15-74-2.89-111,.08-6.43.51-9.64,4.46-9.11,10.73.59,7,5.74,5.38,9.87,5.09C270.56,59.83,290.06,58.29,312.55,58.69Z"/><path d="M409.69,742.85c-.6-187.46-.37-375-3.5-562.94,3,1.39,2.29,4.19,2.53,6.43,3.52,33.22,1.13,66.53,1.41,99.8.29,34.61-.2,69.22.26,103.82.36,26.28,3,52.58,2.24,78.8-.86,31-.57,61.94-.74,92.91-.31,57.84-.13,115.69-.2,173.53C411.69,737.71,412.38,740.33,409.69,742.85Z"/><path d="M210.28,734.05c-4-134.59-2.94-269.24-3.21-403.88C212.63,464.74,208.14,599.41,210.28,734.05Z"/><path d="M206.5,321c.12-59.12-6.16-118.36,2.07-177.37C203.52,202.69,209.62,261.88,206.5,321Z"/><path d="M314.49,770.68c12.58-1.37,25-1.78,37.42,0,10.26,1.48,20.49,2.09,30.81.65a44.73,44.73,0,0,0,21.19-9c-1.23,4.23-4.57,6.32-8.14,8a50.35,50.35,0,0,1-25.6,4.83c-17.45-1.53-34.83-4.09-52.42-2.08C316.57,773.17,315.13,773,314.49,770.68Z"/></svg>