<svg id="Capilar" xmlns="http://www.w3.org/2000/svg" viewBox="0 0 612 792"><title>Artboard 1</title><path d="M335,783.48c-25.73,0-51.46.17-77.19-.1a193.56,193.56,0,0,1-26.34-2c-19.07-2.83-33-19.28-36.77-40.13-4.95-27-4.54-54.21-5.14-81.28-1.27-57.51-5.69-114.94-5.21-172.49.3-34.94,1.32-69.89,4.44-104.68,2.56-28.57,16.1-50.46,43.46-62.44,9.35-4.1,18.5-8.86,25.93-16.16,2.52-2.48,5.4-5.32,3.8-9.17-1.53-3.69-5.44-2.48-8.48-2.61-18.66-.81-21.14-3.11-22.09-21.75a190,190,0,0,1,0-20.11c.27-5.05,1.65-10.27,7.32-11.75,7-1.83,7.38-6.45,6.49-12.21-2-13-1.56-26.06-1.61-39.12,0-11,4.28-19.22,15.69-22.18,6.75-1.75,8.88-6,10.09-12.85,5.17-29.22,9.39-58.34,8.47-88.24-.41-13,5.25-25.61,12.33-36.72,11.09-17.41,30.21-16.94,41,.83,9.82,16.2,13.28,34.42,12.69,52.89-.78,24.73,8.4,47.9,9.42,72.25.22,5.26,4.22,7.33,9.23,8.63,17.78,4.59,21.22,9.22,22,27.21.51,12.34,1.29,24.67,1.94,37,.15,2.84.08,5.87,2.48,7.83,15.23,12.42,11.13,30.1,12.18,46.14.53,8.16-6.36,9.55-13.23,10.42-6.12.77-15.1-2.74-17.34,5.67-2.12,8,5.73,12.26,11.23,16.43,10.9,8.24,24.23,12.05,34.9,21.52,14.9,13.22,19.48,29.3,21.24,47.74,3.87,40.5.77,81.14,3.13,121.67.75,13-1,26.08-.9,39.13.19,30.34.51,60.69,1.3,91,.82,31.46.25,63.12-4.46,93.95-5.61,36.74-21.22,53.43-58.54,54.21-14.46.3-28.94,0-43.41,0ZM272.07,296c-9.37,17.55-25.73,26.27-42.06,35.36-17.41,9.68-28.94,23.06-31.16,44.68-3.75,36.52-6.23,72.89-5.77,109.69.76,61.4,1.68,122.8,3.29,184.19.55,21.13,2.08,42.29,4.25,63.33,2.95,28.69,16.28,41,45,41.32,43.77.43,87.54-.28,131.31,0,31.92.21,46.37-12.12,53.08-46.8,4.5-23.31,3.85-47.05,4.08-70.6.41-40.93.54-81.86-1-122.82-1.41-37.68.15-75.47-1.12-113.16-.69-20.32-1.27-41-8.09-60.62-3.43-9.85-8.19-18.93-17.42-24.54-17.32-10.52-37.27-17.72-46.33-38.42,2.41,15,7.24,21.54,19.5,28.57,7.34,4.2,14.67,8.48,21.62,13.29,12.06,8.35,20,28.86,16.29,41.16-.52-.38-1.42-.7-1.48-1.14-3.41-23.88-17.15-39.42-38.84-48.88-10.23-4.46-16.61-12.85-20.85-23-2-4.71-3.88-9.45-5.82-14.17-4.36,17.23-8.09-2.12-11.19.12-3.33,3-1.27,8.12-5.36,10.26-3.48-2.64-.91-8.75-5.85-10.26-4.12,1.68-1.15,7.14-5,8.69-4.73-.22-1.08-6.62-5.13-7.37-2.34,2.86-.21,7.66-4.73,9-3.61-2.71.66-8.9-3.65-10.11-5.57-1.56-1.89,8-7.49,7.72-2.61-2-.81-7.65-4.52-7.62-6,.06-2,7.44-5.72,9.79-4.24-1.33-2.15-6.29-4.76-8.49-3.31,1.43-.21,6.6-4.26,7.36-3.5-1.06-1.46-5.19-4.75-7.12-.79,15.29-10.07,24.85-21.32,32.74-14.43,10.13-31.89,15.89-43.18,30.7.62-10.65,8.67-14.83,15.85-19.44,10.39-6.66,21.48-12.26,31-20.26C267.56,313.34,272.41,306.1,272.07,296ZM328.28,43.71c-.1,12,2.6,23.93.8,36.53-10-8.52-15.22-16.93-7.6-29.23,2.66-4.27-.06-9.49-2.86-13.85-1.73-2.7-5.36-4.41-5.47-8,3.08-2,5.25,1.52,8.57.4-5.35-6.43-11.05-8.61-17.38-4.53-7.5,4.82-14.26,11.18-16.12,20.14-4.16,20-6.32,40.24-4.73,60.83,1,13.14,5.85,26.42-.23,39.62-.84,1.81-.37,4.19-.71,6.27-1.26,7.58.92,11,9.51,10.16,13.66-1.28,27.42-1.84,41.14-1.9,8.43,0,10.76-3.62,10.92-11.53.32-16.84-4.92-32.67-7.77-48.93C333.09,81.14,334,62,328.28,43.71Zm-17,199.89c-15.12,0-27.82-.17-40.52,0-30.18.46-28.93-7.75-28.66,30.86,0,1.06.14,2.11.18,3.17.17,4.64,2.58,7.88,7.18,7.17,10.39-1.6,20.48,1.79,30.6,1.39,34.84-1.37,69.65-3.49,104.53-2.46,6.44.19,9.47-2.17,9.14-8.38s-1.13-12.63-1.8-18.94c-.92-8.61-5.11-12.55-14.4-13.31C354.6,241.25,331.77,244,311.3,243.6Zm6.83-76.41c-18.69,0-37.33.51-55.77,4-7.81,1.47-11.59,5.8-11.1,14,.83,13.71,2,27.45,1.82,41.16-.11,9.81,5.49,9.59,12.31,9.51,8.29-.09,7.35-4.82,6.69-10.73a156,156,0,0,1,1-44.27c.35-2,.21-4.6,3-4.83s3.48,2.3,3.93,4.18a35.5,35.5,0,0,1,.84,8.37c0,12,.09,24-.32,36-.25,6.94,2.3,11.07,9.38,11.14,18,.17,35.92.61,53.88-.76,7.78-.59,8.55-3.84,7.66-10.86-1.72-13.59-2.29-27.35-2.8-41.06-.14-3.64.66-9,5.23-9.22,5.09-.23,4.64,5.35,5.3,8.9,2.73,14.68,2.64,29.46.91,44.25-.33,2.87-.75,6,3.29,6.48,4.31.51,5.49-2.3,5.39-5.94-.07-2.82-.27-5.64-.51-8.45-1.22-13.61-5.07-27-2.25-40.92,1.08-5.33-3.17-6.13-7-7.39C345.64,166.28,331.88,166.9,318.13,167.19Z"/><path d="M418,397.8c9.77,105.52,6.25,211.25,5.72,316.94C420.05,609.12,420.07,503.44,418,397.8Z"/><path d="M206.05,573.19c5.83,61.17-.32,120.2,8.61,179.87-6.76-4.16-6.58-9.56-7.15-14.59-4.57-40.74-3.61-81.65-4-122.52-.09-10.22.26-20.45-1.75-30.58C201.14,582.11,200.69,578.53,206.05,573.19Z"/><path d="M208.45,391.21c-1.36,54.29-2.66,108.57-4.42,162.86-4.6-54.3-.82-108.53-.93-162.79Z"/><path d="M229.66,763.61c56.35-.3,112.21-8.31,168.13-.93-.59,1.62-3.73,1.71-6.55,2.36-11.24,2.56-22.49,1.54-33.61-.4-36-6.27-71.57,1.91-107.36,2.56C243,767.33,235.76,767.56,229.66,763.61Z"/><path d="M342.65,200.73c-1,8.79-1.77,16.81-2.86,24.78-.31,2.33-1,5.17-4.15,5.22-2.74,0-3.22-2.51-3.52-4.49-2.39-15.6-4.31-31.25-2.31-47.05.39-3.08,1.18-6.76,5.36-6.57,4,.18,4.68,3.71,5.07,6.89C341.15,186.8,341.91,194.11,342.65,200.73Z"/><path d="M320.17,203.68c0,7.72.19,15.46-.11,23.17-.09,2.34-1.25,5.1-4.38,5.08s-3.95-2.53-4.34-5.06c-2.42-15.73-3.16-31.49-.51-47.27.46-2.77,1.15-6.15,4.56-6.27,3.65-.13,4.28,3.5,4.51,6.13.73,8,1,16.12,1.43,24.19Z"/><path d="M300,201.17c-.09,8.39,2.3,16.78.16,25.17-.52,2-.65,4.57-3.41,4.47-2.6-.09-3.08-2.59-3.41-4.6a196.63,196.63,0,0,1-2.39-45.07c.21-3.23,1.43-6.78,5.39-6.55,3.66.21,3.58,3.8,3.63,6.57C300.05,187.83,300,194.5,300,201.17Z"/><path d="M256.25,200.23c0-6-.09-11.94,0-17.9,0-2.52.63-5.34,3.81-5.29,2.38.05,3.28,2.43,3.59,4.58,2.16,14.65,1.91,29.42,2.23,44.16.05,2.5-.6,5.44-3.5,5.72s-3.75-2.6-4.32-5.05C256.06,217.82,256.28,209,256.25,200.23Z"/></svg>