<svg id="Layer_6" data-name="Layer 6" xmlns="http://www.w3.org/2000/svg" viewBox="0 0 612 792"><title>Artboard 1</title><path d="M311.54,782.27c-23.05-.33-46.16,2.57-69.18-1.33-18.05-3.05-23.28-8.4-23.51-26.8-.34-26.95.78-53.77-4.37-80.71-5-26.14-1-53.19-3.84-79.8-3.4-32.4-5.31-65-7.89-97.44-1.19-15-3.17-29.91-3.49-44.89-1.13-52-4.3-104-5.62-156-1.29-50.48-2.28-101.11-9.5-151.29-1.93-13.41-.62-27.06-1.56-40.62-1.74-25.12-8-49.79-6.52-75.27.59-10.64,3.77-16.06,14.67-17.59,21.75-3.06,43.15.55,64.64,2.27a609.53,609.53,0,0,0,87.89.27c21.54-1.39,42.95-4.39,64.62-1.35C416,12.86,421.9,16,424.29,24c4.61,15.53,3,30.51-5.6,44.25A21.93,21.93,0,0,0,415,79.35c-1.82,32.5-5.62,65-5.33,97.48.36,40-6.25,79.42-7.55,119.26-2.78,85.74-4.05,171.5-4.63,257.28-.25,37.34.26,75.2-5.65,111.84-5.45,33.83-2.43,67-3.18,100.52-.24,11.11-5.37,15.88-21.05,16.4C349,782.74,330.24,782.27,311.54,782.27Zm64.17-124.16c-3.81-3.5-3.07-7.33-2.84-10.71,1.87-27.78.45-55.59,1.52-83.42,3.23-83.88,7.81-167.72,9.4-251.67.76-40.28,3.31-80.5,6-120.73,2.16-32.84,4.36-65.84,3-98.86-.23-5.63,2.46-11.42-.16-16.9-4.88-.23-2.68,5.14-6.68,6.1.34-10.15-9.05-1.21-12.46-6.48-1.88-2.89-3-2.18-10.38,9.31-5.47-1.48-.87-9.69-6.88-10.77-4,1.76-1.13,7.63-5.8,8.79-3.89-1.78-.68-8.74-6.24-9-5.82-.29-1.63,8.72-6.69,8.75-5-1.23-4.31-12-8.46-7.41-5.76,6.33-7.73,3.1-10.61-.95-3.91,2.9-1.55,8.86-6.53,9.91-4.62-2.1-.95-8.14-5.18-10.16-5.29,1.75-1.47,8.66-6.69,10.77-3-2.24-1.83-6-3-8.83s-4.59-4.88-5.7-2.2c-4.79,11.68-8.59,4.61-12-.76-4.57,3.59-1,11.9-7.23,11.78-5.26-.1-.66-8.34-5.38-10.63-5,.64-2.51,7.61-7.29,8.59-3.5-.83-1.77-5.74-4.4-7.36-3.28,3-1.18,8.09-5.31,9.52-5.15-.45-3.65-13.18-7.92-7.3-7,9.6-8.12-.36-10.93-1.69-3.94,2.58-1.89,8.82-6.71,8.78-4.23,0-1.92-5.79-4.79-7.62-4.66,6.48-4.66,6.48-10.25,2.22-2.89,3.12.31,9-5,11.28-3.34-2.52-2.47-6.69-5.08-12.5v30.72c-6.83-9.38-3.91-20.54-6.76-27,0,17-.37,37.13.08,57.21.84,37,6.93,73.69,6.91,110.83,0,34.46.22,69,3.08,103.35,5.85,70.15,6.33,140.59,12.53,210.72,3.22,36.45,4.6,73.06,6.83,109.6.48,7.85,2.51,14.67,11.76,16.09A577.22,577.22,0,0,0,352,695.56c18.48-1,30.14-12.54,31.54-26.66,5.32-53.69,4.29-107.64,6.44-161.46,1.94-48.7-.35-97.52,2.28-146.27,1.56-28.91,1.84-57.89,3.05-86.83,2.62-62.21,5.49-124.42,8.15-186.63.15-3.63,1-7.69-1.77-11.43-2.73,3.21-1.74,6.27-2.11,9.08-2.44,18.63,1.59,37.42-.4,55.87-3.47,32.11-3.95,64.34-5.7,96.5-1.69,31.06-2.77,62.18-3.57,93.3-1.27,49.08-2.32,98.18-4.85,147.25-2.79,53.81-3.57,107.73-5.32,161.6C379.5,645.84,379.7,652.05,375.71,658.11Zm-46.85-596c26.38,0,45.06-.05,63.74,0,25,.08,24.55,3.77,24.62-24,0-17-1.9-19-18.88-19q-94.51-.14-189-.27c-28.21-.08-29.21.86-26.88,28.87,1.27,15.31,2.59,16.51,18,16.76C245.8,65.23,291.13,60.84,328.86,62.09ZM243.77,741.6c.69,6.5,2.12,13,1.89,19.49-.31,8.94,2.85,12.21,12,12.13,34-.3,68,1.21,102-1.13,7.86-.54,18.8,0,19.3-11.87.75-17.93.06-35.93-.17-53.9-.06-5.18-2.77-6.78-8-5.9a218.79,218.79,0,0,1-53.45,2.18c-28.12-2.17-56.38-.39-84.9-3.41,9.06,4.7,7.72,11.49,4.88,18.52-.77,1.92-3.25,4.92-.7,5.47,14.61,3.19,2.57,9.72,1.51,14.07-.67,2.77-4.88,5.56-2.92,8.63,4.42,6.9,4.39,14,3,21.72C242.13,759.13,239.33,749.86,243.77,741.6Z"/><path d="M200.83,135.53c1,5.67,2.52,11.31,2.81,17,2.48,49.73,6.41,99.37,7.51,149.2.88,39.88,4.48,79.71,7.2,119.54,1.57,23,1,46.11,2.87,69.17,2.58,31.73,1.95,63.76,5.12,95.41,2.22,22.22,2.77,44.55,5.56,66.7.43,3.43,1.42,7.28-4.53,12.53-14.61-177.67-21.38-353.54-31-529.24Z"/></svg>