<svg id="Layer_1" data-name="Layer 1" xmlns="http://www.w3.org/2000/svg" viewBox="0 0 612 792"><defs><style>.cls-1{fill:none;stroke:#000;stroke-miterlimit:10;stroke-width:2px;}</style></defs><title>Artboard 1</title><path d="M417.58,639.75c-.2,27.89.77,55.76.26,83.68-.72,39.74-26.63,59.14-58.88,61.49-40.24,2.93-80.65,4.28-121,.75a130,130,0,0,1-59.74-20.2c-7-4.52-12-10.31-14.38-18-3.53-11.35-6.85-22.72-6.51-34.95,1.22-43.64-4.38-87.06-3.84-130.75.85-68.61,0-137.25,0-205.87,0-27.54-1.68-55.06,3.05-82.52,5.42-31.42,24.19-51.3,52-64,8.45-3.86,17.46-6.61,24.92-12.33,4-3,7.72-6.74-.38-9.72-5-1.82-4.52-6.22-4.53-10.29,0-32,.78-64-.32-96-.87-25.31-1.84-50.47,1.73-75.65,1.35-9.51,5-14,14.26-15.91,24.29-4.95,48.66-3.17,73-.75,15.23,1.52,17.65,5.8,18.81,20.71,3.5,45,.75,90.06,1.76,135.07.24,10.73,2.54,21.43.36,32.18-.35,1.71-.63,3.44-.84,5.17-.39,3.34-6.35,4.88-3.51,8.91,3.15,4.51,7.14,8.36,12.74,10.13,4.15,1.31,8.08,3.31,12.23,4.61,21.11,6.65,33.86,21.36,41.44,41.62,11.14,29.73,12.49,60.65,12.66,91.89.26,45.6,1.22,91.19,1.74,136.79C415.19,543.86,418.24,591.76,417.58,639.75Zm-181.64-415c-10.28,4-21.08,7-30.74,12.17-21.42,11.43-37.49,28.52-41.59,52.92-3.25,19.37-3.72,39.37-3.68,59.09.07,39.8-1,79.6.81,119.42,1.73,38.9.28,77.89,1.73,116.84,1.4,37.74,1.24,75.54,2.68,113.28.65,17,.36,34.43,8.33,50.35,2.75,5.5,5.43,10.95,11.27,14,22.27,11.57,45.41,19.1,71,16.66,21.74-2.07,43.51-1.56,65.31-.45,14.19.73,28.43.74,42.64-1.3,15.27-2.19,27.15-8.79,35.95-21.84,7.85-11.65,10.39-24.09,10.59-37.88.79-56.7-2.88-113.3-3.37-170-.6-69.7-.43-139.41-2-209.11-.56-24.1-5.36-47.18-13.27-69.88-7.15-20.51-19.74-34.68-41.49-39.37-9.74-2.09-16.84-7.8-22.06-15.79-3.11-4.76-6.88-6.39-12.32-6.29-15.7.29-31.44,1-47.09.1-12.65-.7-22.82,1.76-29.21,13.54Zm48.56-93.65v-.06c-11.91,0-23.83.18-35.73-.07-6.61-.14-9.51,2.33-9.33,9.19.4,16,.42,32,.49,47.94,0,13,.3,13.49,12.9,13.49,23.21,0,46.42-.33,69.64-.32,5.13,0,5.57-3.06,5.57-6.82,0-18.6-.15-37.2,0-55.79,0-5.64-2.22-7.75-7.8-7.63C308.33,131.3,296.42,131.13,284.5,131.13ZM234.56,78.84c0,15-.14,27.48.11,40,.06,3.06-2.54,8.21,4.51,7.83,6.5-.35,6.17-4.12,5.82-9-.61-8.68-.55-17.41-.62-26.12,0-4.31.94-8.5,5.92-9.39C256.49,81,257.05,77,257,71.86q-.39-19.61-.37-39.22c0-12.86,2.58-15.65,15.53-17,11-1.12,22,.22,33,.64,10.13.38,11.8,1.22,11.56,11.45-.36,15.42.81,30.76,1.59,46.13.17,3.25.11,6.78,3.07,8.68,5.3,3.41,5.43,8.41,5.36,13.78-.08,6.68-.07,13.38.32,20,.15,2.46-1.56,7,2.77,6.79,3.05-.15,2-4.32,1.92-6.73-.58-24.39-1.29-48.77-2-73.15-.16-5.8-.41-11.61-.65-17.41-.32-7.69-4.34-11.1-12-12-20.58-2.33-41.2-1.76-61.8-1.42-12,.2-17.8,6.48-19.15,18.31C234.22,47.63,234.74,64.49,234.56,78.84Zm77.8-26.74h-.28c0-7.24-.09-14.49,0-21.73.09-6.22-3.05-9-9-9.1-9-.08-18-.1-27-.12-11.21,0-13.21,1.41-13.56,12.81-.41,13.61.11,27.24.1,40.86,0,4.2,1.53,6.7,6,6.67,12.45-.08,24.9-.19,37.36-.26,5,0,6.39-3,6.35-7.39C312.32,66.59,312.36,59.35,312.36,52.1Zm-19.6,72.95c7,0,13.94-.11,20.9,0,5.13.11,7.45-2.16,7.35-7.3-.12-6.67-.44-13.39.12-20s-2.5-8.38-8.47-8.87c-15.93-1.32-32-2.75-47.82-1.24-18.15,1.73-14.46-1.67-14.66,15.19-.05,4.06.58,8.19.06,12.18-1.07,8.24,2.81,10.93,10.37,10.78C271.32,125.58,282,124.08,292.76,125.05Z"/><path d="M239.44,221.26c3.24-.22,5.16-2.15,6.8-4.79,1.1-1.77,2.3-5,5.09-2.9,2,1.54.07,3.84-1.18,5.29C243.09,227,235.8,235,224.82,238c-22.44,6.1-38.08,20.1-48.56,40.67-4.23,8.32-5.86,17.1-6.41,26-1.75,27.84-1.77,55.74-2.11,83.63-.72,59.82,1.1,119.61,2.09,179.41.35,20.93-.25,41.88.31,62.8.79,29,1.78,58.09,3.57,87.07,1.57,25.52,20.87,44.41,46.34,48,17.78,2.48,35.42.82,53-.57,25.22-2,50.29-2.79,75.56,0,30.52,3.33,44.34-6,50.81-38.68.54-2.72.07-5.78,3.37-8,.64,1.31,1.41,2.24,1.54,3.25,2.94,22.68-18.13,48.09-41,48.4-25,.33-49.85-3.58-74.87-1.73-12.13.89-24.25,2.12-36.39,2.75-16.25.85-32.34.84-48-5.24-23.87-9.25-33-28.32-34.81-51.7-3.44-44.35-3.21-88.84-4.13-133.3-.75-35.74-.09-71.54-1.74-107.22-1.47-31.69-.66-63.32-.84-95-.16-27.24-.16-54.59,3.32-81.62,3.29-25.52,17.15-44.66,40.38-56.35,6.21-3.12,12.89-5.31,19.32-8,4-1.7,8-3.66,10.31-7.67Z"/><path d="M405.31,711.7c-3.06-1.48-2.19-3.78-2.25-5.6-1.25-40.66-1.8-81.36-3.81-122-2.12-42.73.58-85.56-2.07-128.15-3-48.42-.69-97.05-6.51-145.32a159,159,0,0,0-12.26-44.36c-4.09-9.47-12.12-15.46-21.67-19.15-12.38-4.78-23.76-11-32.13-21.65a67.81,67.81,0,0,1-4.09-5.63c-.77-1.23-1.31-2.82.1-3.94s2.88-.22,3.7,1c9.84,14.39,25.18,20.44,39.89,28.28,18.52,9.87,25.79,29,28.93,48.49,6.61,41.09,6.19,82.71,7.66,124.21,1.48,41.84.25,83.68,1.4,125.5,1.41,52,3.3,104,4.89,156C407.21,703.45,408.09,707.87,405.31,711.7Z"/><path d="M178.43,715.06c-4.31-53-.55-106.27-4.57-159.3l3.82-.12q1.9,79.68,3.8,159.36Z"/><path d="M175.81,531.5c-4.46-42.38-1.85-84.95-3.37-127.42C176.21,446.48,177.91,488.94,175.81,531.5Z"/><path d="M299.17,35a2.85,2.85,0,0,1,.42-3.45,2.66,2.66,0,0,1,2.05-.52A2.36,2.36,0,0,1,303.92,34a2.3,2.3,0,0,1-.5,1.33,2.6,2.6,0,0,1-1.93.81A2.78,2.78,0,0,1,299.17,35Z"/><circle class="cls-1" cx="301.36" cy="34.01" r="7.06"/></svg>