<?xml version="1.0" encoding="utf-8"?>
<!-- Generator: Adobe Illustrator 23.0.6, SVG Export Plug-In . SVG Version: 6.00 Build 0)  -->
<svg version="1.1" id="Layer_1" focusable="false" xmlns="http://www.w3.org/2000/svg" xmlns:xlink="http://www.w3.org/1999/xlink"
	 x="0px" y="0px" viewBox="0 0 576 512" style="enable-background:new 0 0 576 512;" xml:space="preserve">
<style type="text/css">
	.st0{fill:#1FA364;}
</style>
<path class="st0" d="M318.9-99.5c-12.5-5.7-24.8,4.5-22,17.8c12.4,60.9-7.1,122.8-54.6,164.7l-60,52.9C102.7,206,95,327.4,165.1,407
	c4.6,5.3,9.7,9.8,14.7,14.4c17.7-76.5,61.1-166.5,159.1-252.8c6.6-5.8,16.8-5.2,22.6,1.4c5.8,6.6,5.2,16.8-1.4,22.6
	C171.4,358.7,193.3,544.8,213.8,603.9c5.8,16.6,24,25.4,40.6,19.6c16.8-5.7,25.5-24,19.9-40.6c-1.3-3.7-16-49.8-5.9-115.5
	c53.3,11.5,127.3,2.2,182.3-57.7c110.3-112.3,100.1-291-13.9-420.4C403.7-48.3,361.2-80.2,318.9-99.5z"/>
</svg>
